
<svg width="52px" height="45px" viewBox="0 0 52 45" version="1.1" xmlns="http://www.w3.org/2000/svg" xmlns:xlink="http://www.w3.org/1999/xlink">
    <!-- Generator: Sketch 50.2 (55047) - http://www.bohemiancoding.com/sketch -->
    <desc>Created with Sketch.</desc>
    <defs></defs>
    <g id="Home" stroke="none" stroke-width="1" fill="none" fill-rule="evenodd">
        <g id="Mobile" transform="translate(-137.000000, -2045.000000)" stroke="#6F66AB">
            <g id="Pluspunten" transform="translate(31.000000, 1748.000000)">
                <g id="Ervaring" transform="translate(1.000000, 297.000000)">
                    <g id="Icon" transform="translate(105.000000, 0.000000)">
                        <polygon id="Stroke-1" points="6 16 41 16 41 5 6 5"></polygon>
                        <g id="Group-14">
                            <polyline id="Stroke-2" points="8.75035102 15.5223837 43.8133714 15.5223837 43.8133714 44.2962209 8.75035102 44.2962209 8.75035102 42.2084302"></polyline>
                            <path d="M8.75035102,15.5223837 L43.8133714,15.5223837 C43.8133714,15.5223837 44.7022286,36.8230814 37.8932082,42.2084302 L2.83122857,42.2084302 C3.91784082,42.2084302 4.82126939,41.2320349 5.56233061,39.6538953" id="Stroke-4"></path>
                            <polygon id="Stroke-6" points="40.690402 4.73023256 40.690402 15.522907 43.812851 15.522907 43.812851 44.2956977 50.7082592 42.2026744 50.7082592 7.86976744"></polygon>
                            <path d="M8.74431429,15.5223837 C8.74431429,16.6609884 9.54678367,33.3779651 0.613457143,39.6518023 L35.6816816,39.6518023 C43.3150286,34.4192442 43.8125388,16.6609884 43.8125388,15.5223837 L8.75055918,15.5223837" id="Stroke-8"></path>
                            <path d="M17.2080245,4.43239535 C17.2080245,2.28181395 15.4740245,0.53727907 13.3341061,0.53727907 C11.1952286,0.53727907 9.46122857,2.28181395 9.46122857,4.43239535 C9.46122857,6.58297674 11.1952286,8.32751163 13.3341061,8.32751163" id="Stroke-10"></path>
                            <path d="M38.8923918,4.43239535 C38.8923918,2.28181395 37.1583918,0.53727907 35.0184735,0.53727907 C32.8795959,0.53727907 31.1455959,2.28181395 31.1455959,4.43239535 C31.1455959,6.58297674 32.8795959,8.32751163 35.0184735,8.32751163" id="Stroke-12"></path>
                        </g>
                    </g>
                </g>
            </g>
        </g>
    </g>
</svg>