<svg width="50px" height="50px" viewBox="0 0 50 50" xmlns="http://www.w3.org/2000/svg">
  <g transform="translate(1 1)" stroke="#6F66AB" stroke-width="2" fill="none" fill-rule="evenodd">
    <path d="M24.21,17.967 L30.921,11.259 L33,2.572 L41.488,0.298 L42.37,1.181 L36.611,6.939 L37.551,10.449 L41.061,11.39 L46.82,5.63 L47.702,6.513 L45.428,15.001 L36.741,17.077 L30.025,23.792 M23.795,30.027 L17.078,36.742 L15,45.428 L6.513,47.701 L5.628,46.818 L11.39,41.061 L10.449,37.551 L6.941,36.611 L1.181,42.369 L0.299,41.486 L2.572,33 L11.258,30.924 L17.974,24.207"/>
    <path d="M28.321,21.381 L21.381,28.322 L17.093,24.034 L24.036,17.094 L28.321,21.381 Z M46.027,39.086 C47.045,40.102 46.309,42.475 44.393,44.393 C42.475,46.309 40.1,47.043 39.084,46.026 L23.634,30.576 C22.62,29.562 23.35,27.185 25.267,25.269 C27.185,23.35 29.563,22.62 30.577,23.633 L46.027,39.086 Z M7.418,9.849 L9.85,7.417 L7.441,3.595 L3.947,1.516 L1.516,3.947 L3.596,7.44 L7.418,9.849 Z"/>
    <polygon points="21.741 19.375 19.376 21.74 7.452 9.815 9.815 7.451"/>
    <path d="M0.799,3.23 L14.432,16.861 M3.23,0.799 L16.863,14.432" transform="translate(26 26)" stroke-linecap="round" stroke-linejoin="round"/>
    <path d="M3.596,7.44 L7.441,3.595"/>
  </g>
</svg>