<svg width="47px" height="47px" viewBox="0 0 47 47" xmlns="http://www.w3.org/2000/svg">
  <g stroke="#6F66AB" stroke-width="2" fill="none" fill-rule="evenodd">
    <path d="M44.5,22.5 C44.5,34.65 34.65,44.5 22.5,44.5 C10.35,44.5 0.5,34.65 0.5,22.5 C0.5,10.35 10.35,0.5 22.5,0.5 C34.65,0.5 44.5,10.35 44.5,22.5 Z" transform="translate(1 1)"/>
    <path d="M22.499,13.084 C24.039,13.084 25.283,11.016 25.283,9.244 C25.283,7.471 24.039,6.667 22.499,6.667 C20.963,6.667 19.715,7.471 19.715,9.244 C19.715,11.016 20.963,13.084 22.499,13.084 Z" transform="translate(1 1)"/>
    <path d="M32.7915,11.7632 C31.9555,11.9902 28.6955,13.0842 25.9115,14.0122 C24.7845,14.3862 23.7015,14.4802 23.0665,14.4992 L21.9335,14.4992 C21.2985,14.4802 20.2155,14.3862 19.0885,14.0122 C16.3045,13.0842 13.0445,11.9902 12.2085,11.7632 C11.0825,11.4562 10.4095,13.0822 11.5395,13.6342 C12.7965,14.2502 18.8825,16.9132 18.8825,16.9132 L18.8825,22.6702 C18.8825,22.6702 17.0655,35.7852 16.9065,37.2142 C16.7765,38.3752 18.8465,38.8252 19.2185,37.6252 C19.5535,36.5482 21.2175,27.9922 21.8545,24.6922 L23.1455,24.6922 C23.7825,27.9922 25.4465,36.5482 25.7815,37.6252 C26.1535,38.8252 28.2235,38.3752 28.0935,37.2142 C27.9345,35.7852 26.1175,22.6702 26.1175,22.6702 L26.1175,16.9132 C26.1175,16.9132 32.2035,14.2502 33.4605,13.6342 C34.5905,13.0822 33.9175,11.4562 32.7915,11.7632 Z" transform="translate(1 1)"/>
  </g>
</svg>