
<svg width="47px" height="46px" viewBox="0 0 47 46" version="1.1" xmlns="http://www.w3.org/2000/svg" xmlns:xlink="http://www.w3.org/1999/xlink">
    <!-- Generator: Sketch 50.2 (55047) - http://www.bohemiancoding.com/sketch -->
    <desc>Created with Sketch.</desc>
    <defs></defs>
    <g id="Home" stroke="none" stroke-width="1" fill="none" fill-rule="evenodd" stroke-linecap="round" stroke-linejoin="round">
        <g id="Mobile" transform="translate(-136.000000, -1822.000000)" stroke="#6F66AB">
            <g id="Pluspunten" transform="translate(31.000000, 1748.000000)">
                <g id="Zelf-doen" transform="translate(1.000000, 74.000000)">
                    <g id="Icon" transform="translate(105.000000, 0.000000)">
                        <path d="M33.6001,17.5044 L29.0071,22.0994" id="Stroke-1"></path>
                        <path d="M23.186,16.2798 L27.781,11.6858" id="Stroke-2"></path>
                        <path d="M11.6528,27.815 L16.2478,23.22" id="Stroke-3"></path>
                        <path d="M22.063,29.0454 L17.473,33.6334" id="Stroke-4"></path>
                        <polyline id="Stroke-5" points="11.4546 27.6167 2.9666 29.8907 0.6926 38.3787 1.5746 39.2617 7.3346 33.5027 10.8436 34.4427 11.7836 37.9527 6.0246 43.7107 6.9066 44.5937 15.3946 42.3197 17.6706 33.8307"></polyline>
                        <polyline id="Stroke-7" points="33.7983 17.7027 42.2863 15.4287 44.5603 6.9407 43.6783 6.0577 37.9183 11.8167 34.4093 10.8767 33.4693 7.3677 39.2303 1.6087 38.3463 0.7257 29.8583 2.9997 27.5823 11.4887"></polyline>
                        <polygon id="Stroke-10" points="25.1685 18.2593 18.2285 25.2003 13.9395 20.9123 20.8835 13.9723"></polygon>
                        <path d="M42.8745,35.9649 C43.8915,36.9789 43.1565,39.3539 41.2405,41.2709 C39.3225,43.1879 36.9475,43.9209 35.9325,42.9049 L20.4805,27.4539 C19.4665,26.4399 20.1975,24.0639 22.1135,22.1469 C24.0315,20.2289 26.4095,19.4989 27.4235,20.5119 L42.8745,35.9649 Z" id="Stroke-11"></path>
                        <path d="M37.0425,39.9771 C36.6885,40.3311 36.1125,40.3321 35.7585,39.9771 L23.4095,27.6281 C23.0555,27.2741 23.0555,26.6991 23.4095,26.3451 C23.7645,25.9901 24.3395,25.9901 24.6935,26.3441 L37.0425,38.6931 C37.3965,39.0481 37.3965,39.6231 37.0425,39.9771 Z" id="Stroke-13"></path>
                        <path d="M39.9468,37.0733 C39.5928,37.4273 39.0168,37.4283 38.6628,37.0733 L26.3128,24.7243 C25.9598,24.3703 25.9598,23.7953 26.3138,23.4403 C26.6688,23.0863 27.2438,23.0863 27.5968,23.4403 L39.9468,35.7893 C40.3008,36.1443 40.3008,36.7193 39.9468,37.0733 Z" id="Stroke-15"></path>
                        <path d="M20.729,27.7022 L18.041,30.3902 C17.173,31.2582 15.764,31.2582 14.896,30.3902 C14.027,29.5212 14.027,28.1142 14.896,27.2462 L17.584,24.5572" id="Stroke-17"></path>
                        <path d="M24.5259,17.6162 L27.2129,14.9292 C28.0799,14.0612 29.4879,14.0612 30.3569,14.9292 C31.2249,15.7982 31.2249,17.2062 30.3569,18.0742 L27.6719,20.7602" id="Stroke-19"></path>
                        <polygon id="Stroke-21" points="4.3037 1.8721 1.8727 4.3031 0.4997 2.9311 2.9307 0.5001"></polygon>
                        <polygon id="Stroke-23" points="4.3037 1.8721 1.8727 4.3031 4.2817 5.2971 5.2977 4.2801"></polygon>
                        <polygon id="Stroke-25" points="17.8633 16.9786 16.9133 17.9286 4.2813 5.2966 5.2313 4.3466"></polygon>
                    </g>
                </g>
            </g>
        </g>
    </g>
</svg>