<svg width="78px" height="46px" viewBox="0 0 78 46" xmlns="http://www.w3.org/2000/svg">
  <g transform="translate(1 1)" stroke="#6F66AB" stroke-width="2" fill="none" fill-rule="evenodd">
    <path d="M1 31L13 31C13.5522847 31 14 30.5522847 14 30L14 8C14 7.44771525 13.5522847 7 13 7L1 7C.44771525 7-6.76353751e-17 7.44771525 0 8L0 30C6.76353751e-17 30.5522847.44771525 31 1 31zM5 10L9 10M10 19L28.2210679 19"/>
    <polyline points="26 16 28.8160396 19.0948067 26 22.1896133"/>
    <path d="M21 38L71 38 71 2C71 .8954305 70.1045695-2.02906125e-16 69 0L23 0C21.8954305 2.02906125e-16 21 .8954305 21 2L21 38zM18 44L74 44C75.1045695 44 76 43.1045695 76 42L76 38 16 38 16 42C16 43.1045695 16.8954305 44 18 44zM18 41L23.8423779 41M45 3L46.8947554 3"/>
  </g>
</svg>