<svg width="67px" height="48px" viewBox="0 0 67 48" xmlns="http://www.w3.org/2000/svg">
<g stroke="#6F66AB" stroke-width="2" fill="none" fill-rule="evenodd">
	<path d="M31.9702,11.3682 C28.9502,10.1232 25.4902,9.4152 21.8122,9.4162 C10.0412,9.4162 0.5002,16.6572 0.5002,25.5892 C0.5002,32.2292 5.7772,37.9282 13.3182,40.4192 L11.0892,44.5832 L19.0272,41.6092 C19.9402,41.7002 20.8662,41.7632 21.8122,41.7632 C30.1872,41.7632 37.4352,38.0972 40.9182,32.7632" transform="translate(1 1)"/>
	<path d="M64.436,16.6738 C64.436,7.7408 54.894,0.4998 43.124,0.4998 C31.353,0.4998 21.812,7.7408 21.812,16.6738 C21.812,25.6068 31.353,32.8478 43.124,32.8478 C45.973,32.8478 48.687,32.4158 51.172,31.6458 L58.523,34.3998 L55.941,29.5738 C61.092,26.6218 64.436,21.9498 64.436,16.6738 Z" transform="translate(1 1)"/>
	<path d="M38.397 17.0747C38.397 18.1787 37.501 19.0747 36.397 19.0747 35.293 19.0747 34.397 18.1787 34.397 17.0747 34.397 15.9707 35.293 15.0747 36.397 15.0747 37.501 15.0747 38.397 15.9707 38.397 17.0747zM45.397 17.0747C45.397 18.1787 44.501 19.0747 43.397 19.0747 42.293 19.0747 41.397 18.1787 41.397 17.0747 41.397 15.9707 42.293 15.0747 43.397 15.0747 44.501 15.0747 45.397 15.9707 45.397 17.0747zM52.397 17.0747C52.397 18.1787 51.501 19.0747 50.397 19.0747 49.293 19.0747 48.397 18.1787 48.397 17.0747 48.397 15.9707 49.293 15.0747 50.397 15.0747 51.501 15.0747 52.397 15.9707 52.397 17.0747z" transform="translate(1 1)"/>
</g>
</svg>