
<svg width="65px" height="46px" viewBox="0 0 65 46" version="1.1" xmlns="http://www.w3.org/2000/svg" xmlns:xlink="http://www.w3.org/1999/xlink">
    <!-- Generator: Sketch 50.2 (55047) - http://www.bohemiancoding.com/sketch -->
    <desc>Created with Sketch.</desc>
    <defs></defs>
    <g id="Home" stroke="none" stroke-width="1" fill="none" fill-rule="evenodd">
        <g id="Mobile" transform="translate(-130.000000, -2311.000000)" stroke="#6F66AB">
            <g id="Pluspunten" transform="translate(31.000000, 1748.000000)">
                <g id="Communicatie" transform="translate(1.000000, 563.000000)">
                    <g id="Icon" transform="translate(98.000000, 0.000000)">
                        <path d="M31.9702,11.3682 C28.9502,10.1232 25.4902,9.4152 21.8122,9.4162 C10.0412,9.4162 0.5002,16.6572 0.5002,25.5892 C0.5002,32.2292 5.7772,37.9282 13.3182,40.4192 L11.0892,44.5832 L19.0272,41.6092 C19.9402,41.7002 20.8662,41.7632 21.8122,41.7632 C30.1872,41.7632 37.4352,38.0972 40.9182,32.7632" id="Stroke-1"></path>
                        <path d="M64.436,16.6738 C64.436,7.7408 54.894,0.4998 43.124,0.4998 C31.353,0.4998 21.812,7.7408 21.812,16.6738 C21.812,25.6068 31.353,32.8478 43.124,32.8478 C45.973,32.8478 48.687,32.4158 51.172,31.6458 L58.523,34.3998 L55.941,29.5738 C61.092,26.6218 64.436,21.9498 64.436,16.6738 Z" id="Stroke-3"></path>
                        <path d="M37.147,17.4497 C37.147,18.2087 36.531,18.8247 35.772,18.8247 C35.013,18.8247 34.397,18.2087 34.397,17.4497 C34.397,16.6907 35.013,16.0747 35.772,16.0747 C36.531,16.0747 37.147,16.6907 37.147,17.4497 Z" id="Stroke-5"></path>
                        <path d="M44.499,17.4497 C44.499,18.2087 43.883,18.8247 43.124,18.8247 C42.365,18.8247 41.749,18.2087 41.749,17.4497 C41.749,16.6907 42.365,16.0747 43.124,16.0747 C43.883,16.0747 44.499,16.6907 44.499,17.4497 Z" id="Stroke-7"></path>
                        <path d="M51.8511,17.4497 C51.8511,18.2087 51.2351,18.8247 50.4761,18.8247 C49.7171,18.8247 49.1011,18.2087 49.1011,17.4497 C49.1011,16.6907 49.7171,16.0747 50.4761,16.0747 C51.2351,16.0747 51.8511,16.6907 51.8511,17.4497 Z" id="Stroke-9"></path>
                    </g>
                </g>
            </g>
        </g>
    </g>
</svg>