<svg width="53px" height="47px" viewBox="0 0 53 47" xmlns="http://www.w3.org/2000/svg">
  <g transform="translate(1 1)" stroke="#6F66AB" stroke-width="2" fill="none" fill-rule="evenodd">
    <polygon points="6 16 41 16 41 5 6 5"/>
    <polyline points="8.75035102 15.5223837 43.8133714 15.5223837 43.8133714 44.2962209 8.75035102 44.2962209 8.75035102 42.2084302"/>
    <path d="M8.75035102,15.5223837 L43.8133714,15.5223837 C43.8133714,15.5223837 44.7022286,36.8230814 37.8932082,42.2084302 L2.83122857,42.2084302 C3.91784082,42.2084302 4.82126939,41.2320349 5.56233061,39.6538953"/>
    <polygon points="40.690402 4.73023256 40.690402 15.522907 43.812851 15.522907 43.812851 44.2956977 50.7082592 42.2026744 50.7082592 7.86976744"/>
    <path d="M8.74431429 15.5223837C8.74431429 16.6609884 9.54678367 33.3779651.613457143 39.6518023L35.6816816 39.6518023C43.3150286 34.4192442 43.8125388 16.6609884 43.8125388 15.5223837L8.75055918 15.5223837M17.2080245 4.43239535C17.2080245 2.28181395 15.4740245.53727907 13.3341061.53727907 11.1952286.53727907 9.46122857 2.28181395 9.46122857 4.43239535 9.46122857 6.58297674 11.1952286 8.32751163 13.3341061 8.32751163M38.8923918 4.43239535C38.8923918 2.28181395 37.1583918.53727907 35.0184735.53727907 32.8795959.53727907 31.1455959 2.28181395 31.1455959 4.43239535 31.1455959 6.58297674 32.8795959 8.32751163 35.0184735 8.32751163"/>
  </g>
</svg>